<?xml version="1.0" standalone="no"?>
<!DOCTYPE svg PUBLIC "-//W3C//DTD SVG 20010904//EN"
 "http://www.w3.org/TR/2001/REC-SVG-20010904/DTD/svg10.dtd">
<svg version="1.0" xmlns="http://www.w3.org/2000/svg"
 width="106.000000pt" height="106.000000pt" viewBox="0 0 106.000000 106.000000"
 preserveAspectRatio="xMidYMid meet">
<metadata>
Created by potrace 1.11, written by Peter Selinger 2001-2013
</metadata>
<g transform="translate(0.000000,106.000000) scale(0.100000,-0.100000)"
fill="#000000" stroke="none">
<path d="M30 536 l0 -525 55 4 c31 2 76 13 101 25 51 25 140 92 167 127 10 13
24 29 30 36 17 17 87 116 87 122 0 3 13 25 28 50 33 52 30 54 97 -50 140 -218
251 -312 381 -323 l54 -4 0 114 0 115 -42 -2 c-24 -1 -46 -3 -49 -4 -3 0 -4
-26 -3 -56 1 -30 0 -55 -3 -55 -13 0 -61 32 -83 55 -24 26 -25 32 -27 174 l-1
148 44 -1 44 -1 0 42 c0 59 0 58 -47 55 -31 -3 -43 0 -44 10 0 7 -1 63 -1 125
0 93 3 118 19 145 17 30 75 78 94 78 4 0 6 -29 5 -65 -2 -70 0 -72 54 -70 l35
1 3 123 3 123 -58 -5 c-134 -12 -261 -116 -380 -308 l-61 -100 -65 98 c-155
233 -264 323 -393 323 l-44 0 0 -524z m146 392 c34 -24 62 -64 70 -101 7 -32
5 -546 -2 -582 -7 -39 -47 -91 -84 -110 -16 -8 -31 -15 -32 -15 -2 0 -4 187
-4 415 0 267 3 415 10 415 5 0 24 -10 42 -22z m209 -245 c21 -32 50 -78 66
-104 l27 -47 -33 -53 c-19 -30 -41 -67 -50 -84 -8 -16 -24 -41 -35 -55 l-20
-25 -1 25 c-1 27 -1 367 0 388 1 20 6 15 46 -45z m339 -158 c1 -113 -1 -205
-4 -205 -5 0 -37 54 -103 170 l-26 45 45 74 c24 40 44 75 44 77 0 11 33 54 38
49 3 -2 5 -97 6 -210z"/>
</g>
</svg>
